<svg width="150" height="150">
    <style type="text/css">
        .st0{fill:#d1baf4}
    </style>
    <path class="st0" d="M31,123.7c0.7-2.7,1.3-5.3,2-8c0.3-1.1,0.5-2.1,0.8-3.2c0.3-1.1,0.9-1.5,1.8-1.3c0.8,0.2,1.2,0.9,1,2  c-0.6,2.7-1.3,5.4-2,8.1c0,0.1,0,0.2-0.1,0.5c4-1.5,7.9-3,11.8-4.5c-1-1.2-2.1-2.3-3-3.5c-2.9-3.8-4.2-8.1-4.5-12.8  c-0.1-2.1-0.4-4.3-0.5-6.4c-0.1-1.2,0.4-1.9,1.4-1.9c0.9,0,1.4,0.6,1.5,1.7c0.3,3.4,0.5,6.8,1,10.1c0.8,4.7,3.4,8.5,7.1,11.5  c0.1,0.1,0.4,0.2,0.6,0.1c5.4-2,10.8-4.1,16.1-6.1c0,0,0,0,0-0.1c-0.6-0.3-1.2-0.6-1.7-0.9C51.8,102,44.3,91.6,41.6,77.7  c-0.1-0.5-0.1-1.1,0.2-1.5c0.3-0.3,0.9-0.6,1.3-0.6c0.7,0,1.1,0.6,1.2,1.3c0.3,1.5,0.6,3.1,1,4.6c3.8,12.6,11.8,21.4,23.9,26.5  c0.3,0.1,0.7,0.3,1,0.1c3.2-1.2,6.4-2.4,9.6-3.6c-1.6-0.8-3.3-1.5-4.8-2.3c-8.3-4.5-15.1-10.8-21-18.2c-3-3.8-5.7-7.8-7.5-12.4  c-0.9-2.3-1.5-4.6-1.1-7c0.6-3.3,3.9-5.5,7.2-4.6c0.8,0.2,1.2,0.8,1.1,1.6c-0.1,0.8-0.7,1.2-1.6,1.2c-0.3,0-0.6-0.1-0.9-0.1  c-1.9,0.1-3,1.2-3.1,3.1c-0.1,1.8,0.4,3.4,1.1,5c1.8,4.5,4.5,8.5,7.6,12.2c5.8,7,12.4,13,20.5,17.2c2.1,1.1,4.3,2,6.7,2.2  c0.6,0,1.2,0,1.8-0.1c1.2-0.2,1.8-1.1,2-2.3c0.2-1.7-0.2-3.2-0.7-4.8c-0.1-0.4-0.3-0.7-0.3-1.1c-0.1-0.7,0.3-1.3,1-1.5  c0.7-0.2,1.4,0,1.6,0.7c1.1,2.6,1.8,5.2,1.1,8c-0.4,1.8-1.6,3-3.3,3.6c-6.7,2.5-13.4,5-20.2,7.6c-11.2,4.2-22.5,8.5-33.7,12.7  c-0.2,0.1-0.4,0.2-0.6,0.3c-0.6,0-1.2,0-1.8,0C31,124.9,31,124.3,31,123.7z"/>
    <path class="st0" d="M113.9,125.6c-1.1-0.7-1.3-1.2-0.7-2.5c1-2,1-4.1,0-6.1c-0.1-0.2-0.3-0.5-0.4-0.7c-0.3,1-0.5,2-0.8,2.8  c-0.9,2.1-2.5,3.3-4.8,3.5c-2.4,0.2-4.3-0.8-5.4-3c-1.1-2-1-4.1,0.3-6c1.2-1.7,2.8-2.7,4.7-3.3c0.2-0.1,0.4-0.1,0.6-0.2  c-1.9-2.1-4.1-3.7-6.7-4.8c-1.3-0.5-2.6-0.8-3.9-1.2c-1-0.3-1.6-0.9-1.4-1.7c0.2-0.9,0.9-1.3,2-1.1c5.9,1.2,10.6,4.3,14,9.3  c0.3,0.5,0.8,1,1.3,1.3c3.9,2.9,5.2,8.5,2.9,12.8c-0.2,0.4-0.6,0.6-0.9,0.9C114.5,125.6,114.2,125.6,113.9,125.6z M110.1,115.7  c0,0-0.1,0-0.1,0c0-0.3,0-0.7-0.1-1c-0.3-1.6-1.1-2-2.6-1.5c-1.1,0.4-2.1,1.1-2.8,2.1c-0.9,1.4-0.5,3.2,0.9,4.1  c1.4,0.8,3.3,0.3,4-1.2C109.7,117.4,109.9,116.5,110.1,115.7z"/>
    <path class="st0" d="M31,45.8c0.4-0.7,1-1,1.8-1.1c1-0.1,2.1-0.3,3.1-0.5c0.3-0.1,0.7-0.3,0.9-0.6c0.5-1,1-2,1.5-3  c0.3-0.6,0.7-1,1.4-1c0.7,0,1.1,0.4,1.4,1c0.5,1,0.9,2,1.5,3c0.2,0.3,0.5,0.5,0.9,0.6c1.1,0.2,2.3,0.4,3.4,0.5  c0.6,0.1,1.1,0.4,1.3,1c0.2,0.6,0,1.1-0.5,1.6c-0.8,0.8-1.7,1.6-2.5,2.5c-0.2,0.2-0.3,0.6-0.3,0.9c0.1,1.1,0.4,2.1,0.5,3.2  c0.1,0.7,0.1,1.3-0.5,1.7c-0.6,0.5-1.2,0.3-1.9,0c-0.9-0.5-1.9-1-2.8-1.5c-0.3-0.1-0.8-0.2-1.1,0c-1,0.5-2,1.1-3.1,1.5  c-0.5,0.2-1.2,0.2-1.6,0c-0.6-0.2-0.7-0.9-0.6-1.5c0.2-1.1,0.3-2.2,0.6-3.2c0.1-0.6,0-1-0.4-1.4c-1-1-1.9-2-2.9-3  C31,46.4,31,46.1,31,45.8z M42.1,52c-0.8-2-0.2-3.5,1.5-4.7c-2.2,0.1-3.4-0.9-4-3c-0.5,2.1-1.8,3-4,3c1.8,1.2,2.2,2.7,1.6,4.8  C38.9,50.5,40.5,50.8,42.1,52z"/>
    <path class="st0" d="M77,84c-0.9-0.1-1.3-0.4-1.5-1.1c-0.2-0.7,0.1-1.3,0.8-1.7c1.6-0.8,3.2-1.5,4.8-2.3c8.2-3.9,16.4-7.8,24.6-11.7  c0.2-0.1,0.3-0.1,0.5-0.2c0.8-0.3,1.6-0.1,2,0.7c0.3,0.7,0.1,1.5-0.7,1.9c-1.6,0.8-3.3,1.6-4.9,2.4c-8.2,3.9-16.4,7.8-24.7,11.7  C77.6,83.8,77.2,83.9,77,84z"/>
    <path class="st0" d="M66.8,58.2c0,6.3-1.1,11.8-3.3,17.1c-0.6,1.5-1.3,3-1.9,4.6c-0.5,1.1-1.2,1.5-2.1,1.1c-0.8-0.3-1-1.2-0.6-2.2  c1.1-2.9,2.4-5.8,3.4-8.7c2-6.4,2.2-12.8,0.9-19.4c0-0.2-0.1-0.5-0.1-0.7c-0.1-0.9,0.3-1.5,1.1-1.7c0.8-0.2,1.5,0.3,1.7,1.1  C66.5,52.5,66.8,55.6,66.8,58.2z"/>
    <path class="st0" d="M85.3,86.8c6.9,0,12.3,1,17.4,2.9c0.4,0.2,1,0.5,1.1,0.9c0.2,0.4,0,1.1-0.2,1.5c-0.4,0.6-1,0.6-1.7,0.4  c-1.6-0.5-3.2-1.1-4.8-1.5c-6.4-1.6-12.9-1.7-19.5-0.4c-1.2,0.2-2.3,0.4-3.5,0.6c-0.8,0.1-1.5-0.4-1.6-1.1c-0.1-0.8,0.3-1.5,1.1-1.7  C78,87.6,82.3,86.8,85.3,86.8z"/>
    <path class="st0" d="M94,60.4c0,1.1,0,2.2,0,3.3c0,1.2-0.5,1.7-1.7,1.7c-2.2,0-4.5,0-6.7,0c-1.1,0-1.6-0.5-1.6-1.7  c0-2.2,0-4.5,0-6.7c0-1.2,0.5-1.7,1.7-1.7c2.2,0,4.4,0,6.6,0c1.2,0,1.7,0.5,1.7,1.7C94,58.2,94,59.3,94,60.4z M86.9,58.3  c0,1.5,0,2.8,0,4.2c1.4,0,2.8,0,4.2,0c0-1.4,0-2.8,0-4.2C89.7,58.3,88.3,58.3,86.9,58.3z"/>
    <path class="st0" d="M82.8,68.2c-0.3,0.5-0.5,1-0.8,1.2c-4.7,4.2-9.3,8.4-14,12.6c-0.8,0.7-1.6,0.7-2.2,0c-0.6-0.6-0.5-1.5,0.3-2.2  c4.6-4.2,9.3-8.3,13.9-12.5c0.5-0.5,1.1-0.8,1.7-0.4C82.1,67.3,82.4,67.8,82.8,68.2z"/>
    <path class="st0" d="M109.8,99.7c-2.4,0-4.3-1.8-4.3-4.2c0-2.4,1.9-4.3,4.3-4.4c2.4,0,4.3,2,4.3,4.3  C114.1,97.8,112.2,99.7,109.8,99.7z M109.8,94c-0.8,0-1.4,0.6-1.4,1.4c0,0.8,0.6,1.4,1.3,1.4c0.8,0,1.5-0.6,1.5-1.4  C111.3,94.7,110.6,94,109.8,94z"/>
    <path class="st0" d="M79.7,55.3c0,2.4-1.9,4.3-4.3,4.3c-2.4,0-4.3-1.9-4.3-4.3c0-2.4,1.9-4.3,4.3-4.3C77.8,51.1,79.7,53,79.7,55.3z   M75.5,56.8c0.8,0,1.4-0.7,1.4-1.5c0-0.7-0.7-1.4-1.4-1.4c-0.8,0-1.4,0.7-1.4,1.4C74,56.2,74.6,56.8,75.5,56.8z"/>
    <path class="st0" d="M62.5,45.3c-1.6,0-2.9-1.3-2.9-2.9c0-1.6,1.3-2.9,2.9-2.8c1.5,0,2.8,1.3,2.8,2.8C65.4,44,64.1,45.3,62.5,45.3z"/>
    <path class="st0" d="M109.8,61.9c0,1.4-0.5,2.1-1.4,2.1c-1,0-1.4-0.7-1.4-2.1c0-0.3,0-0.7,0.1-1c0.2-0.7,0.8-1.2,1.5-1.1  c0.8,0.1,1.2,0.5,1.3,1.3C109.8,61.3,109.8,61.6,109.8,61.9z"/>
    <path class="st0" d="M106.2,43.9c1.4,0,2.1,0.4,2.1,1.4c0,1-0.7,1.5-2.1,1.5c-0.3,0-0.7,0-1-0.1c-0.8-0.2-1.2-0.7-1.2-1.4  c0-0.7,0.5-1.3,1.3-1.4C105.7,43.9,105.9,43.9,106.2,43.9z"/>
    <path class="st0" d="M112.1,65.6c-0.2-0.2-0.8-0.4-0.9-0.8c-0.2-0.4-0.1-1,0.2-1.5c0.3-0.5,0.7-1,1.2-1.2c0.4-0.2,1-0.3,1.4-0.1  c0.4,0.2,0.7,0.7,0.8,1.1C114.9,64.1,113.3,65.6,112.1,65.6z"/>
    <path class="st0" d="M114.8,69.7c-1.4,0-2.1-0.5-2.1-1.4c0-1,0.7-1.4,2.1-1.4c0.3,0,0.5,0,0.8,0c0.8,0.1,1.4,0.7,1.4,1.5  c0,0.8-0.6,1.3-1.5,1.4C115.2,69.7,115,69.7,114.8,69.7z"/>
    <path class="st0" d="M109.8,74.7c0,1.4-0.4,2.1-1.4,2.1c-1,0-1.5-0.7-1.5-2.1c0-0.3,0-0.6,0-0.9c0.1-0.7,0.7-1.3,1.4-1.3  c0.8,0,1.3,0.6,1.4,1.4C109.8,74.2,109.8,74.5,109.8,74.7z"/>
    <path class="st0" d="M104,41.8c0,0.3,0,0.5,0,0.8c-0.1,0.8-0.6,1.4-1.4,1.4c-0.8,0-1.4-0.5-1.4-1.3c0-0.5,0-0.9,0-1.4  c0-0.9,0.6-1.5,1.4-1.5c0.8,0,1.4,0.6,1.4,1.6C104.1,41.4,104.1,41.6,104,41.8C104,41.8,104,41.8,104,41.8z"/>
    <path class="st0" d="M104.1,49c0,0.2,0,0.3,0,0.5c0,1-0.6,1.6-1.5,1.6c-0.8,0-1.4-0.6-1.4-1.5c0-0.4,0-0.8,0-1.2  c0-0.9,0.6-1.5,1.4-1.5c0.8,0,1.4,0.6,1.4,1.5C104.1,48.5,104.1,48.8,104.1,49z"/>
    <path class="st0" d="M99.1,43.9c0.2,0,0.3,0,0.5,0c1,0,1.6,0.6,1.6,1.4c0,0.8-0.6,1.4-1.6,1.4c-0.4,0-0.8,0-1.3,0  c-0.9-0.1-1.4-0.7-1.4-1.5c0-0.8,0.6-1.3,1.5-1.4C98.6,43.9,98.8,43.9,99.1,43.9C99.1,43.9,99.1,43.9,99.1,43.9z"/>
    <path class="st0" d="M105.7,64.2c0,1-1.2,1.8-2,1.2c-0.6-0.4-1.2-1-1.6-1.6c-0.6-0.8,0.2-2,1.2-2C104.2,61.8,105.7,63.3,105.7,64.2z  "/>
    <path class="st0" d="M114.8,73.6c-0.1,0.2-0.4,0.7-0.7,0.9c-0.4,0.2-1,0.2-1.4,0c-0.6-0.4-1.1-0.9-1.4-1.5c-0.2-0.4-0.2-1,0-1.4  c0.2-0.4,0.8-0.7,1.2-0.7C113.3,70.8,114.8,72.4,114.8,73.6z"/>
</svg>